<?xml version="1.0" encoding="UTF-8"?>
<svg width="100" height="100" viewBox="0 0 100 100" fill="none" xmlns="http://www.w3.org/2000/svg">
  <path d="M50 85C50 85 18 65 18 40.5C18 22.5 32 15 42 15C47.5 15 50 17 50 17C50 17 52.5 15 58 15C68 15 82 22.5 82 40.5C82 65 50 85 50 85Z" fill="#F3E8FF" stroke="#6C27FF" stroke-width="4" stroke-linecap="round" stroke-linejoin="round"/>
  <path d="M34 33C35.5772 33 37 31.5772 37 30C37 28.4228 35.5772 27 34 27C32.4228 27 31 28.4228 31 30C31 31.5772 32.4228 33 34 33Z" fill="#6C27FF"/>
  <path d="M66 33C67.5772 33 69 31.5772 69 30C69 28.4228 67.5772 27 66 27C64.4228 27 63 28.4228 63 30C63 31.5772 64.4228 33 66 33Z" fill="#6C27FF"/>
  <path d="M38 45L50 57L62 45" stroke="#6C27FF" stroke-width="4" stroke-linecap="round" stroke-linejoin="round"/>
</svg> 