<?xml version="1.0" encoding="UTF-8"?>
<svg width="100" height="100" viewBox="0 0 100 100" fill="none" xmlns="http://www.w3.org/2000/svg">
  <path d="M16 50C16 50 30 25 50 25C70 25 84 50 84 50C84 50 70 75 50 75C30 75 16 50 16 50Z" fill="#F3E8FF" stroke="#6C27FF" stroke-width="4" stroke-linecap="round" stroke-linejoin="round"/>
  <path d="M50 61C56.0751 61 61 56.0751 61 50C61 43.9249 56.0751 39 50 39C43.9249 39 39 43.9249 39 50C39 56.0751 43.9249 61 50 61Z" fill="white" stroke="#6C27FF" stroke-width="4" stroke-linecap="round" stroke-linejoin="round"/>
  <path d="M50 55C52.7614 55 55 52.7614 55 50C55 47.2386 52.7614 45 50 45C47.2386 45 45 47.2386 45 50C45 52.7614 47.2386 55 50 55Z" fill="#6C27FF"/>
  <path d="M47 42L44 34" stroke="#6C27FF" stroke-width="3" stroke-linecap="round" stroke-linejoin="round"/>
  <path d="M61 46L67 40" stroke="#6C27FF" stroke-width="3" stroke-linecap="round" stroke-linejoin="round"/>
  <path d="M39 46L33 40" stroke="#6C27FF" stroke-width="3" stroke-linecap="round" stroke-linejoin="round"/>
  <path d="M53 42L56 34" stroke="#6C27FF" stroke-width="3" stroke-linecap="round" stroke-linejoin="round"/>
  <path d="M64 52H72" stroke="#6C27FF" stroke-width="3" stroke-linecap="round" stroke-linejoin="round"/>
  <path d="M28 52H36" stroke="#6C27FF" stroke-width="3" stroke-linecap="round" stroke-linejoin="round"/>
</svg> 