<?xml version="1.0" encoding="UTF-8"?>
<svg width="100" height="100" viewBox="0 0 100 100" fill="none" xmlns="http://www.w3.org/2000/svg">
  <path d="M30 17C27.2386 17 25 19.2386 25 22C25 24.7614 27.2386 27 30 27C32.7614 27 35 24.7614 35 22C35 19.2386 32.7614 17 30 17Z" fill="#F3E8FF" stroke="#6C27FF" stroke-width="3" stroke-linecap="round" stroke-linejoin="round"/>
  <path d="M70 17C67.2386 17 65 19.2386 65 22C65 24.7614 67.2386 27 70 27C72.7614 27 75 24.7614 75 22C75 19.2386 72.7614 17 70 17Z" fill="#F3E8FF" stroke="#6C27FF" stroke-width="3" stroke-linecap="round" stroke-linejoin="round"/>
  <path d="M30 83C27.2386 83 25 80.7614 25 78C25 75.2386 27.2386 73 30 73C32.7614 73 35 75.2386 35 78C35 80.7614 32.7614 83 30 83Z" fill="#F3E8FF" stroke="#6C27FF" stroke-width="3" stroke-linecap="round" stroke-linejoin="round"/>
  <path d="M70 83C67.2386 83 65 80.7614 65 78C65 75.2386 67.2386 73 70 73C72.7614 73 75 75.2386 75 78C75 80.7614 72.7614 83 70 83Z" fill="#F3E8FF" stroke="#6C27FF" stroke-width="3" stroke-linecap="round" stroke-linejoin="round"/>
  <path d="M30 27L70 73" stroke="#6C27FF" stroke-width="4" stroke-linecap="round" stroke-linejoin="round"/>
  <path d="M30 73L70 27" stroke="#6C27FF" stroke-width="4" stroke-linecap="round" stroke-linejoin="round"/>
  <path d="M50 38C52.7614 38 55 35.7614 55 33C55 30.2386 52.7614 28 50 28C47.2386 28 45 30.2386 45 33C45 35.7614 47.2386 38 50 38Z" fill="#F3E8FF" stroke="#6C27FF" stroke-width="3" stroke-linecap="round" stroke-linejoin="round"/>
  <path d="M50 72C52.7614 72 55 69.7614 55 67C55 64.2386 52.7614 62 50 62C47.2386 62 45 64.2386 45 67C45 69.7614 47.2386 72 50 72Z" fill="#F3E8FF" stroke="#6C27FF" stroke-width="3" stroke-linecap="round" stroke-linejoin="round"/>
</svg> 