<?xml version="1.0" encoding="UTF-8"?>
<svg width="100" height="100" viewBox="0 0 100 100" fill="none" xmlns="http://www.w3.org/2000/svg">
  <path d="M50 35C55.5228 35 60 30.5228 60 25C60 19.4772 55.5228 15 50 15C44.4772 15 40 19.4772 40 25C40 30.5228 44.4772 35 50 35Z" fill="#F3E8FF" stroke="#6C27FF" stroke-width="4" stroke-linecap="round" stroke-linejoin="round"/>
  <path d="M35 55H65" stroke="#6C27FF" stroke-width="4" stroke-linecap="round" stroke-linejoin="round"/>
  <path d="M38 85L45 55" stroke="#6C27FF" stroke-width="4" stroke-linecap="round" stroke-linejoin="round"/>
  <path d="M62 85L55 55" stroke="#6C27FF" stroke-width="4" stroke-linecap="round" stroke-linejoin="round"/>
  <path d="M33 45C33 45 40 52 50 52C60 52 67 45 67 45" stroke="#6C27FF" stroke-width="4" stroke-linecap="round" stroke-linejoin="round"/>
  <path d="M46 25H54" stroke="#6C27FF" stroke-width="3" stroke-linecap="round" stroke-linejoin="round"/>
  <circle cx="45" cy="22" r="2" fill="#6C27FF"/>
  <circle cx="55" cy="22" r="2" fill="#6C27FF"/>
  <path d="M70 39L60 45" stroke="#6C27FF" stroke-width="3" stroke-linecap="round" stroke-linejoin="round"/>
  <path d="M30 39L40 45" stroke="#6C27FF" stroke-width="3" stroke-linecap="round" stroke-linejoin="round"/>
  <path d="M30 68L38 65" stroke="#6C27FF" stroke-width="3" stroke-linecap="round" stroke-linejoin="round"/>
  <path d="M70 68L62 65" stroke="#6C27FF" stroke-width="3" stroke-linecap="round" stroke-linejoin="round"/>
</svg> 